<?xml version="1.0" encoding="utf-8"?>
<!-- Generator: Adobe Illustrator 16.0.3, SVG Export Plug-In . SVG Version: 6.00 Build 0)  -->
<!DOCTYPE svg PUBLIC "-//W3C//DTD SVG 1.1//EN" "http://www.w3.org/Graphics/SVG/1.1/DTD/svg11.dtd">
<svg version="1.1" id="Ebene_1" xmlns="http://www.w3.org/2000/svg" xmlns:xlink="http://www.w3.org/1999/xlink" x="0px" y="0px"
	 width="100px" height="25px" viewBox="0 0 100 25" enable-background="new 0 0 100 25" xml:space="preserve">
<g>
	<g>
		<path fill="#C7D22C" d="M44.265,24.288l0.03,0.139c0.021,0.029,0.041,0.044,0.06,0.044c0.046,0,0.082-0.092,0.114-0.266
			c-0.008-0.08-0.021-0.203-0.053-0.365C44.325,23.94,44.257,23.981,44.265,24.288z M43.377,23.64c-0.026,0-0.054,0.005-0.081,0.016
			c-0.023,0.008-0.048,0.012-0.071,0.012c-0.1,0-0.203-0.057-0.307-0.073c-0.228-0.041-0.463-0.08-0.696-0.12
			c-0.212-0.063-0.424-0.121-0.636-0.143c-0.027-0.003-0.054-0.004-0.08-0.004c-0.156,0-0.312,0.043-0.473,0.043
			c-0.093,0-0.185,0.016-0.276,0.016c-0.09,0-0.179-0.015-0.268-0.075l-0.222,0.041c0,0.222,0.045,0.24,0.084,0.262l0.195,0.061
			c0.123,0.136,0.244,0.19,0.365,0.19c0.097,0,0.194-0.034,0.295-0.088h0.165c0.092,0.13,0.185,0.161,0.276,0.161
			c0.053,0,0.104-0.01,0.156-0.018l0.176,0.041c0.162,0.041,0.326,0.212,0.492,0.212c0.079,0,0.159-0.039,0.239-0.151h0.023
			c0.065,0.076,0.129,0.106,0.192,0.106c0.091,0,0.18-0.062,0.269-0.146l0.113,0.039c0.151,0.104,0.295,0.225,0.445,0.308
			l0.128-0.123C43.715,23.87,43.557,23.64,43.377,23.64z M39.337,23.433c0.19,0.041,0.372,0.081,0.561,0.12
			c0.008,0,0.016-0.102,0.03-0.222c-0.062-0.013-0.121-0.019-0.18-0.019C39.609,23.313,39.475,23.349,39.337,23.433z M79.406,24.772
			c0.023,0.003,0.043,0.007,0.06,0.007c0.085,0,0.091-0.072,0.127-0.514l-0.12-0.104C79.451,24.387,79.428,24.57,79.406,24.772z
			 M78.165,24.875l0.062,0.123C78.23,25,78.235,25,78.239,25c0.052,0,0.085-0.118,0.069-0.268c-0.008-0.062-0.028-0.121-0.061-0.224
			C78.218,24.652,78.188,24.752,78.165,24.875z M77.294,23.27c0.019,0.017,0.036,0.024,0.054,0.024c0.052,0,0.097-0.063,0.141-0.126
			c0.044-0.063,0.085-0.125,0.13-0.125c0.006,0,0.012,0.001,0.018,0.003c-0.048-0.023-0.093-0.047-0.138-0.047
			C77.427,22.999,77.358,23.058,77.294,23.27z M18.18,1.218l-0.063-0.123c-0.004-0.001-0.009-0.002-0.013-0.002
			c-0.053,0-0.084,0.117-0.07,0.267c0.009,0.061,0.032,0.121,0.062,0.223C18.128,1.439,18.157,1.341,18.18,1.218z M11.422,23.799
			l0.104-0.041v-0.082h-0.228L11.422,23.799z M6.799,20.004c0.098,0.162,0.125,0.214,0.182,0.214c0.021,0,0.047-0.008,0.082-0.02
			l-0.078-0.181L6.799,20.004z M7.398,18.345c-0.026,0-0.052,0.011-0.077,0.011l0.194,0.153C7.479,18.371,7.439,18.345,7.398,18.345
			z M5.219,17.799l-0.102-0.043c0.044,0.127,0.063,0.182,0.106,0.182c0.033,0,0.081-0.03,0.163-0.084l-0.092-0.043L5.219,17.799z
			 M7.405,2.489C7.441,2.46,7.464,2.293,7.451,2.154c-0.008-0.11-0.029-0.157-0.06-0.157C7.388,1.997,7.383,1.998,7.378,2
			L7.306,2.057C7.288,2.11,7.278,2.196,7.26,2.292l0.054,0.209L7.405,2.489z M94.106,14.83c0.026,0.081,0.051,0.119,0.073,0.119
			c0.025,0,0.048-0.049,0.067-0.14c-0.015-0.079-0.028-0.106-0.043-0.106C94.174,14.703,94.144,14.821,94.106,14.83z M92.641,9.573
			c0.004-0.077,0.006-0.174,0.014-0.285l-0.031-0.033l-0.03,0.078C92.604,9.573,92.604,9.573,92.641,9.573z M94.355,16.017
			c-0.006-0.108-0.011-0.22-0.018-0.229l-0.043-0.021l-0.009,0.131l0.013,0.133L94.355,16.017z M93.924,15.253
			c0.005-0.003,0.011-0.004,0.016-0.004c0.006,0,0.013,0.001,0.019,0.003s0.012,0.004,0.018,0.004c0.026,0,0.051-0.039,0.071-0.298
			c-0.021-0.063-0.042-0.096-0.06-0.096c-0.013,0-0.023,0.016-0.032,0.054C93.943,14.972,93.938,15.09,93.924,15.253z M95.01,22.167
			c-0.294-0.187-0.037-0.479-0.037-0.479s-0.035-0.737-0.439-0.958c-0.143-0.079-0.185-0.102-0.183-0.102
			c0,0,0.021,0.011,0.044,0.021c0.021,0.011,0.045,0.021,0.049,0.021c0.003,0-0.002-0.004-0.019-0.016
			c-0.11-0.073,0.108-0.329-0.403-0.329c-0.355,0-1.659-0.301-2.429-0.482l0.043-0.047l0.046-0.021
			c0.091-0.176,0.187-0.219,0.281-0.314l0.085-0.102c0.005,0.002,0.009,0.002,0.014,0.002c0.056,0,0.106-0.116,0.158-0.208
			l0.027-0.021c0.013,0.041,0.025,0.055,0.037,0.055c0.024,0,0.048-0.052,0.072-0.065l0.104-0.176
			c0.012-0.017,0.023-0.03,0.034-0.03c0.019,0,0.036,0.038,0.053,0.161c0.015,0.113,0.031,0.124,0.048,0.124h0.014
			c0.005,0,0.01,0,0.014,0.005l0.021-0.118c-0.003-0.271-0.047-0.263-0.038-0.544c0.018-0.03,0.035-0.082,0.052-0.082
			c0.02,0,0.037,0.067,0.052,0.311c0.021-0.501,0.079-0.426,0.125-0.469c0.006-0.121,0.01-0.229,0.021-0.339l0.014,0.218
			l0.155-0.101c0.03-0.204,0.069-0.129,0.104-0.183l0.06-0.063c0.036-0.197,0.084-0.152,0.129-0.177
			c0.036-0.021,0.072-0.045,0.106-0.219l0.041-0.098l0.079-0.098c-0.005-0.209-0.005-0.342-0.029-0.471
			c-0.026-0.132-0.05-0.253-0.077-0.36c-0.009-0.043-0.021-0.131-0.016-0.292l0.141-0.273c0.027-0.033,0.056-0.033,0.081-0.207
			c0.016-0.129,0.038-0.171,0.063-0.171c0.006,0,0.013,0.003,0.019,0.008c0.021,0.011,0.037,0.086,0.052,0.237
			c-0.011,0.242-0.017,0.49-0.022,0.698c0.007,0.085,0.014,0.11,0.02,0.11c0.004,0,0.009-0.015,0.014-0.028
			c0.005-0.015,0.01-0.029,0.016-0.029c0.003,0,0.006,0.004,0.009,0.012c0.01,0.1,0.024,0.219,0.04,0.358
			c0.017,0.123,0.031,0.194,0.052,0.194c0.003,0,0.007-0.002,0.011-0.007l0.046-0.033c0.003-0.204,0.005-0.394,0.007-0.577
			l0.004,0.023c0.017-0.066,0.031-0.163,0.049-0.163c0.006,0,0.012,0.01,0.018,0.034l0.075,0.262
			c0.004-0.133,0.013-0.23,0.016-0.352l0.049,0.196l0.025-0.12c0.008,0.098,0.014,0.188,0.018,0.264
			c0.047-0.045,0.047-0.045,0.064-0.24l-0.055-0.185l-0.056-0.088l0.011-0.144c-0.018-0.073-0.035-0.099-0.052-0.099
			c-0.037,0-0.072,0.131-0.111,0.131l-0.035,0.071l-0.004-0.03l-0.056,0.164c-0.026-0.143-0.041-0.36-0.052-0.579
			c0.033-0.262,0.033-0.262,0.052-0.652l-0.06-0.045l-0.056,0.105h-0.023c-0.028,0-0.053-0.151-0.067-0.368l0.015-0.327l0.043-0.08
			l0.058-0.047l0.225-0.24l0.13-0.223c0.021-0.055,0.049-0.128,0.058-0.392c-0.085-0.087-0.085-0.087-0.122-0.698l-0.062-0.228
			c-0.016,0.083-0.032,0.131-0.05,0.131c-0.013,0-0.026-0.024-0.042-0.077h-0.052l-0.156,0.218L93.7,12.671
			c-0.02-0.012-0.041-0.108-0.043-0.35l0.031-0.118l0.146-0.066c0.019,0.008,0.037,0.021,0.055,0.021
			c0.035,0,0.069-0.046,0.098-0.261l0.035-0.063l0.01-0.089c-0.01-0.129-0.019-0.24-0.023-0.35c0.008-0.185,0.023-0.217,0.043-0.24
			l0.063-0.064l0.029-0.152l-0.075-0.088l-0.188,0.131c-0.048,0.046-0.095,0.091-0.142,0.091c-0.033,0-0.065-0.021-0.099-0.08
			l-0.059-0.042l-0.06-0.09c-0.02-0.065-0.038-0.102-0.057-0.102c-0.014,0-0.029,0.022-0.045,0.07
			c-0.01,0.036-0.02,0.051-0.029,0.051c-0.029,0-0.058-0.159-0.086-0.301c0.021-0.251,0.024-0.23,0.075-0.425
			c0.009-0.04,0.02-0.046,0.029-0.046c0.003,0,0.006,0,0.009,0.001c0.002,0,0.005,0.001,0.008,0.001c0.016,0,0.03-0.017,0.042-0.142
			c-0.037-0.186-0.076-0.141-0.11-0.153l-0.246-0.01l-0.188,0.077l-0.146,0.022l-0.13,0.033c-0.008,0.006-0.016,0.009-0.023,0.009
			c-0.031,0-0.063-0.052-0.094-0.14c-0.02-0.063-0.04-0.162-0.06-0.162c-0.011,0-0.022,0.031-0.034,0.118l-0.014-0.021
			c-0.014-0.065-0.024-0.093-0.036-0.093s-0.023,0.027-0.035,0.071c-0.012,0.052-0.025,0.069-0.039,0.069
			c-0.016,0-0.031-0.021-0.047-0.037c-0.035-0.043-0.069-0.129-0.104-0.129c-0.018,0-0.036,0.022-0.054,0.085l-0.025,0.014
			L91.939,9.71c-0.062,0.055-0.122-0.032-0.178,0.23l-0.104-0.13c-0.005,0.012-0.01,0.017-0.014,0.017
			c-0.021,0-0.037-0.103-0.057-0.193l-0.104,0.164l-0.186-0.021L91.154,9.81l-0.023,0.063c-0.03-0.161-0.058-0.232-0.088-0.232
			c-0.011,0-0.021,0.009-0.033,0.026c-0.05,0.066-0.101,0.129-0.152,0.129c-0.042,0-0.082-0.04-0.122-0.151l-0.026,0.096
			c-0.032,0.107-0.064,0.255-0.099,0.255c-0.015,0-0.03-0.028-0.047-0.102h-0.01c-0.013,0.044-0.024,0.06-0.038,0.06
			c-0.032,0-0.065-0.095-0.099-0.102L90.36,9.873l-0.118,0.088c-0.006,0.01-0.011,0.015-0.017,0.015
			c-0.011,0-0.021-0.017-0.033-0.034c-0.011-0.017-0.021-0.033-0.033-0.033s-0.024,0.021-0.036,0.084l-0.02-0.066
			c-0.014-0.092-0.025-0.112-0.038-0.112c-0.003,0-0.007,0.002-0.011,0.004l-0.052-0.01c-0.009-0.025-0.017-0.036-0.023-0.036
			c-0.019,0-0.035,0.064-0.055,0.134c-0.021,0.087-0.043,0.146-0.065,0.146c-0.02,0-0.039-0.046-0.057-0.159
			c-0.016-0.09-0.029-0.127-0.043-0.127c-0.012,0-0.023,0.024-0.035,0.063l-0.053,0.206c-0.02-0.042-0.04-0.116-0.059-0.116
			c-0.01,0-0.02,0.022-0.029,0.083L89.56,9.961l-0.074-0.24c-0.029,0.143-0.041,0.204-0.063,0.204c-0.017,0-0.039-0.035-0.076-0.095
			c-0.01-0.109-0.021-0.208-0.031-0.285c-0.002-0.001-0.004-0.001-0.006-0.001c-0.04,0-0.066,0.193-0.094,0.328
			c-0.027-0.076-0.057-0.131-0.085-0.131c-0.012,0-0.024,0.01-0.037,0.034c-0.007,0.014-0.014,0.022-0.021,0.022
			c-0.015,0-0.03-0.034-0.043-0.122L89.001,9.6l-0.104,0.132c-0.011,0.019-0.02,0.034-0.028,0.034c-0.013,0-0.023-0.023-0.034-0.089
			l-0.019-0.052l0.026-0.578l-0.147,0.026L88.55,9.204c-0.13-0.075-0.26-0.196-0.395-0.196c-0.028,0-0.057,0.005-0.085,0.017
			l-0.121-0.021c-0.128-0.061-0.188-0.244-0.188-0.69c0-0.387,0.022-0.773,0.028-1.158c0.093-0.103,0.167-0.205,0.241-0.285
			c0.039-0.365,0.024-0.649-0.074-0.771c-0.111-0.143-0.188-0.386-0.248-0.773c0.028-0.101,0.061-0.203,0.081-0.283l0.093-0.163
			c0.158,0.032,0.297,0.274,0.442,0.274c0.036,0,0.073-0.015,0.109-0.051l-0.008-0.142l-0.036-0.123
			c-0.251-0.413-0.517-0.738-0.801-0.738c-0.023,0-0.047,0.002-0.071,0.007c-0.037,0.009-0.06,0.013-0.077,0.013
			c-0.061,0-0.003-0.063-0.152-0.175l0.255-0.05c0,0-2.29-1.613-3.313-1.613c-0.116,0-0.217,0.021-0.296,0.068
			c-0.148,0.089-0.302,0.125-0.453,0.125c-0.627,0-1.215-0.616-1.215-0.616c-0.225-0.105-0.449-0.155-0.676-0.171l-0.226,0.188
			l-0.128,0.117h-0.239l-0.121-0.177c-0.078-0.099-0.164-0.204-0.253-0.204c-0.039,0-0.078,0.021-0.118,0.069l-0.11-0.037
			l-0.229-0.05c-0.016,0-0.031,0.001-0.046,0.001c-0.053,0-0.105-0.011-0.15-0.105l-0.105-0.125c-0.335,0-0.659-0.313-0.99-0.313
			c-0.027,0-0.056,0.002-0.083,0.007c-0.025,0.005-0.051,0.006-0.076,0.006c-0.036,0-0.072-0.003-0.107-0.006
			c-0.036-0.003-0.073-0.006-0.107-0.006c-0.027,0-0.054,0.002-0.08,0.006c-0.018,0.004-0.036,0.006-0.054,0.006
			c-0.058,0-0.114-0.018-0.17-0.035c-0.057-0.018-0.113-0.035-0.169-0.035c-0.054,0-0.107,0.016-0.161,0.064
			c-0.332,0.305-0.674,0.162-1.017,0.366l-0.202-0.02c-0.036-0.004-0.071-0.007-0.108-0.007c-0.136,0-0.279,0.033-0.445,0.128
			c0.062,0.143,0.083,0.265,0.114,0.265l0.194-0.015c0.011-0.004,0.021-0.007,0.032-0.007c0.107,0,0.188,0.224,0.301,0.224h-1.208
			c0.059,0,0.127-0.126,0.179-0.258c-0.096-0.194-0.191-0.261-0.293-0.261c-0.015,0-0.03,0.001-0.046,0.004
			c-0.049,0-0.1,0.009-0.149,0.009c-0.058,0-0.114-0.013-0.167-0.067c-0.102-0.128-0.202-0.171-0.303-0.171
			c-0.043,0-0.086,0.008-0.13,0.021c-0.13,0.037-0.259,0.104-0.387,0.104c-0.084,0-0.167-0.027-0.25-0.107l-0.084,0.039
			c-0.091,0.086-0.18,0.114-0.27,0.114c-0.122,0-0.244-0.05-0.365-0.074l-0.146-0.061c-0.164,0.059-0.327,0.075-0.491,0.075
			c-0.233,0-0.468-0.035-0.704-0.035c-0.055,0-0.109-0.005-0.165-0.005c-0.098,0-0.195,0.017-0.297,0.106l-0.104,0.021
			c-0.084-0.096-0.168-0.126-0.25-0.126c-0.13,0-0.258,0.073-0.388,0.085l-0.175,0.041c-0.169-0.068-0.337-0.112-0.507-0.112
			c-0.186,0-0.372,0.055-0.558,0.192h-0.093c-0.257,0-0.522,0.021-0.779,0.021c-0.092-0.021-0.174-0.102-0.266-0.143l-0.258-0.041
			c-0.09,0.064-0.179,0.074-0.266,0.074c-0.021,0-0.042,0-0.063-0.001c-0.021,0-0.042-0.001-0.063-0.001
			c-0.043,0-0.087,0.002-0.131,0.013c-0.1,0.041-0.214,0.041-0.312,0.184C67.199,1.712,67.15,1.741,67.1,1.741
			c-0.041,0-0.082-0.019-0.127-0.046c-0.089-0.041-0.188-0.08-0.285-0.08c-0.064,0-0.13-0.014-0.193-0.014
			c-0.072,0-0.143,0.018-0.207,0.094c-0.078,0.095-0.15,0.135-0.223,0.135c-0.067,0-0.132-0.035-0.202-0.095L65.8,1.757
			c-0.104,0.019-0.212,0.126-0.316,0.146l-0.222,0.093H53.077c-0.112,0-0.229-0.234-0.342-0.297l-0.129,0.156l0.059,0.141h-0.447
			l0.008-0.259l-0.029-0.171c-0.023-0.032-0.044-0.047-0.063-0.047c-0.045,0-0.08,0.083-0.111,0.253l0.014,0.1L36.254,2.165
			c-0.14-0.075-0.277-0.169-0.42-0.169H35.69l-0.113,0.129c-0.073-0.077-0.148-0.103-0.225-0.103c-0.079,0-0.159,0.028-0.238,0.057
			c-0.08,0.028-0.159,0.056-0.238,0.056c-0.044,0-0.088-0.009-0.131-0.031c-0.05-0.027-0.103-0.033-0.154-0.033
			c-0.021,0-0.041,0.001-0.062,0.002c-0.02,0.001-0.04,0.002-0.06,0.002c-0.024,0-0.049-0.001-0.073-0.006l-0.175-0.007
			c-0.355-0.224-0.721-0.125-1.073-0.208c-0.107-0.021-0.213-0.063-0.319-0.083L32.769,1.75c-0.069,0.059-0.136,0.093-0.202,0.093
			c-0.072,0-0.145-0.04-0.223-0.135c-0.064-0.077-0.136-0.095-0.209-0.095c-0.063,0-0.129,0.014-0.19,0.014
			c-0.098,0-0.196,0.04-0.286,0.08c-0.045,0.028-0.087,0.047-0.128,0.047c-0.05,0-0.1-0.029-0.154-0.108
			c-0.097-0.143-0.21-0.143-0.31-0.184c-0.043-0.01-0.087-0.013-0.13-0.013c-0.021,0-0.044,0-0.065,0.001
			c-0.021,0-0.044,0.001-0.064,0.001c-0.088,0-0.175-0.01-0.261-0.072l-0.259,0.041c-0.09,0.041-0.174,0.123-0.266,0.143
			c-0.258,0-0.522-0.02-0.779-0.02h-0.09c-0.188-0.14-0.375-0.194-0.562-0.194c-0.169,0-0.338,0.044-0.506,0.112l-0.176-0.041
			c-0.128-0.012-0.257-0.084-0.386-0.084c-0.083,0-0.166,0.03-0.25,0.125l-0.104-0.021c-0.102-0.089-0.198-0.106-0.295-0.106
			c-0.057,0-0.111,0.006-0.167,0.006c-0.234,0-0.468,0.034-0.701,0.034c-0.163,0-0.328-0.017-0.494-0.075l-0.145,0.061
			c-0.122,0.024-0.243,0.074-0.364,0.074c-0.091,0-0.181-0.028-0.271-0.114L24.648,1.28c-0.082,0.079-0.165,0.106-0.247,0.106
			c-0.13,0-0.26-0.068-0.389-0.106c-0.047-0.013-0.094-0.021-0.14-0.021c-0.098,0-0.195,0.04-0.294,0.165
			c-0.045,0.046-0.092,0.059-0.141,0.059c-0.058,0-0.117-0.019-0.175-0.019C23.24,1.46,23.22,1.458,23.198,1.458
			c-0.095,0-0.184,0.048-0.275,0.231c0.098,0.244,0.257,0.04,0.277,0.567c-0.034,0.103-0.067,0.137-0.1,0.137
			c-0.046,0-0.089-0.068-0.133-0.117l-0.065,0.137L22.062,2.43c-0.08-0.154-0.159-0.31-0.236-0.457
			c0.127-0.188,0.21-0.267,0.307-0.267c0.029,0,0.061,0.007,0.095,0.021l0.194,0.082c0.03,0,0.055-0.122,0.113-0.265
			c-0.165-0.097-0.31-0.13-0.444-0.13c-0.037,0-0.073,0.002-0.109,0.007l-0.202,0.021c-0.341-0.204-0.681-0.062-1.016-0.365
			c-0.054-0.048-0.106-0.064-0.161-0.064s-0.111,0.018-0.167,0.035c-0.057,0.018-0.113,0.034-0.171,0.034
			c-0.018,0-0.036-0.001-0.054-0.005c-0.025-0.005-0.052-0.006-0.078-0.006c-0.036,0-0.071,0.003-0.107,0.006
			s-0.072,0.005-0.107,0.005c-0.026,0-0.052-0.001-0.077-0.005c-0.028-0.005-0.056-0.007-0.084-0.007
			c-0.332,0-0.655,0.312-0.99,0.312l-0.107,0.122c-0.044,0.091-0.094,0.104-0.144,0.104c-0.018,0-0.034-0.002-0.052-0.002
			l-0.228,0.041l-0.112,0.021c-0.044-0.056-0.087-0.078-0.131-0.078c-0.083,0-0.166,0.086-0.241,0.18
			c-0.077,0.104-0.152,0.138-0.228,0.138c-0.086,0-0.171-0.043-0.256-0.076l-0.227-0.123l-0.149,0.022
			c0.017-0.14,0.031-0.272,0.047-0.411c-0.021-0.003-0.038-0.006-0.054-0.006c-0.084,0-0.097,0.068-0.129,0.436
			c-0.188,0.032-0.376,0.082-0.555,0.204c-0.101,0.063-0.196,0.243-0.304,0.386c-0.106-0.006-0.213-0.013-0.32-0.013
			c-0.237,0-0.475,0.03-0.71,0.155c-0.096,0.041-0.191,0.064-0.289,0.089l-1.602,0.03c0,0-0.472-0.708-1.88-0.708
			c-0.583,0-1.963,0.052-2.595,0.052H8.417C7.956,1.937,7.722,1.909,7.722,1.889V1.89c0-0.009-0.001-0.015-0.004-0.015
			c-0.007,0-0.024,0.034-0.063,0.102C7.717,2.342,7.68,2.354,7.741,2.438l-0.02,0.025v1.49l-0.09,0.021l-0.02-0.013
			C7.552,4.056,7.493,4.087,7.436,4.087C7.338,4.087,7.242,4,7.139,3.974L7.017,4.002c-0.016,0.011-0.03,0.016-0.044,0.016
			c-0.063,0-0.116-0.09-0.175-0.169L6.782,3.613l0.045-0.083L6.88,3.583L6.94,3.458c-0.093-0.063-0.17-0.206-0.252-0.206
			c-0.03,0-0.061,0.019-0.092,0.066C6.562,3.292,6.527,3.282,6.493,3.282c-0.075,0-0.15,0.045-0.225,0.064L6.117,3.291
			C6.016,3.233,5.914,3.202,5.811,3.202c-0.097,0-0.194,0.028-0.296,0.089C5.487,3.235,5.458,3.164,5.419,3.068L5.351,3.151
			c-0.04,0.095-0.077,0.145-0.12,0.145c-0.02,0-0.041-0.01-0.063-0.032l-0.19-0.018L4.936,3.361
			c0.018,0.158,0.043,0.196,0.071,0.196c0.014,0,0.027-0.008,0.04-0.016c0.014-0.009,0.027-0.017,0.04-0.017
			s0.024,0.008,0.035,0.032c0.025,0.098,0.04,0.209,0.014,0.308L5.054,4.017l-0.11-0.083C4.93,3.929,4.917,3.926,4.904,3.926
			c-0.057,0-0.111,0.054-0.156,0.202C4.761,4.266,4.784,4.3,4.811,4.3c0.006,0,0.012-0.001,0.018-0.004
			C4.835,4.295,4.843,4.295,4.85,4.295c0.157,0,0.304,0.128,0.441,0.42C5.36,4.854,5.436,4.91,5.515,4.91
			c0.01-0.001,0.021-0.001,0.03-0.001c0.099,0,0.197,0.066,0.293,0.154L5.95,5.134C5.967,5.132,5.983,5.131,6,5.131
			c0.17,0,0.336,0.119,0.507,0.171C6.539,5.31,6.57,5.331,6.603,5.331c0.024,0,0.05-0.014,0.076-0.057l0.056-0.028
			C6.772,5.283,6.81,5.297,6.847,5.297c0.042,0,0.085-0.018,0.128-0.035c0.044-0.018,0.087-0.035,0.132-0.035
			c0.015,0,0.029,0.002,0.045,0.007c0.024-0.141,0.056-0.296,0.072-0.393L7.29,4.884c0.032,0.131,0.07,0.224,0.122,0.224
			c0.003,0,0.007,0,0.01-0.001c0.099-0.035,0.198-0.041,0.3-0.05v0.826l-0.1-0.049C7.6,5.832,7.578,5.83,7.559,5.83
			c-0.077,0-0.141,0.019-0.227,0.031L7.234,5.889C7.217,5.872,7.2,5.863,7.186,5.863c-0.034,0-0.063,0.045-0.097,0.15L6.982,6.098
			l-0.106-0.35C6.855,5.861,6.836,6,6.807,6.168L6.723,6.013c-0.019-0.35-0.088-0.377-0.159-0.377L6.488,5.663L6.355,5.777
			C6.254,5.819,6.147,5.748,6.068,6.139C6.021,5.887,5.99,5.72,5.96,5.554L5.901,5.622C5.849,5.93,5.77,6.071,5.686,6.155
			L5.565,5.93C5.501,5.895,5.437,5.877,5.373,5.877S5.245,5.895,5.181,5.93C5.152,6.083,5.129,6.224,5.102,6.39
			C5.09,6.384,5.078,6.381,5.066,6.381c-0.033,0-0.067,0.021-0.1,0.044C4.933,6.447,4.899,6.469,4.865,6.469
			c-0.044,0-0.089-0.038-0.135-0.162c-0.04,0.267-0.07,0.461-0.1,0.644c0.123,0.572,0.123,0.572,0.244,0.753
			C4.858,7.801,4.854,7.94,4.832,7.982C4.736,8.166,4.642,8.332,4.544,8.5C4.58,8.774,4.641,8.865,4.71,8.865
			c0.005,0,0.01,0,0.015-0.001s0.01-0.002,0.014-0.002c0.064,0,0.11,0.11,0.156,0.268C4.938,9.255,4.98,9.38,5.022,9.521
			C4.98,9.632,4.854,9.871,4.808,9.884L4.595,9.94L4.48,9.983l-0.107,0.083l0.037,0.166c0.121,0.175,0.246,0.239,0.375,0.239
			c0.015,0,0.029-0.001,0.045-0.002c0.052,0,0.052,0,0.126,0.237c-0.004,0.169-0.041,0.238-0.078,0.266l-0.191,0.057H4.479
			c0.013,0.181,0.024,0.335,0.035,0.475c0.013,0.183,0.048,0.28,0.094,0.309l0.152,0.097l0.157,0.181
			c-0.068,0.223-0.124,0.406-0.173,0.572c0.008,0.268,0.055,0.308,0.098,0.335c0.059,0.014,0.114,0.042,0.169,0.251l-0.124,0.182
			l-0.012,0.11c0.016,0.21,0.026,0.419-0.006,0.672l-0.162,0.165c0.004,0.184,0.011,0.338,0.013,0.449
			c0.132,0.419,0.305,0.335,0.455,0.628l-0.061,0.183L4.96,15.651L4.893,15.75c0.153,0.154,0.305,0.336,0.469,0.336
			c0.259,0,0.514,0.182,0.768,0.362c0.038,0.026,0.094,0.043,0.102,0.267c-0.01,0.118-0.033,0.145-0.058,0.145
			c-0.007,0-0.014-0.001-0.021-0.005c-0.179-0.067-0.355-0.14-0.531-0.224c-0.116-0.058-0.228-0.14-0.346-0.183
			c-0.019-0.006-0.038-0.009-0.057-0.009c-0.075,0-0.15,0.049-0.222,0.205c0.094,0.223,0.111,0.235,0.214,0.292
			c0.092,0.041,0.181,0.07,0.27,0.099c0.354,0.142,0.698,0.477,1.046,0.741c0.178,0.141,0.351,0.306,0.526,0.445l0.129-0.194
			c-0.008-0.211-0.014-0.405-0.018-0.587c0.026-0.086,0.029-0.111,0.034-0.111c0.004,0,0.009,0.015,0.028,0.027
			c0.189,0.142,0.498,0.288,0.498,0.42v0.638l-0.105-0.037c0.022,0.153,0.092,0.222,0.103,0.222c0.001,0,0.002-0.001,0.002-0.002
			v2.104l0.222,0.017l-0.052,0.145l-0.041,0.123c0,0-0.997,1.763,0.01,1.847c0.335,0.028,0.846,0.037,1.378,0.037
			c1.063,0,2.211-0.037,2.211-0.037l0.241,0.07l-0.014-0.045c0.157,0.103,0.314,0.206,0.473,0.28
			c0.243,0.102,0.483,0.123,0.726,0.225c0.236,0.127,0.475,0.155,0.713,0.155c0.105,0,0.213-0.005,0.318-0.011
			c0.105,0.143,0.203,0.323,0.303,0.385c0.271,0.184,0.56,0.225,0.841,0.245l0.227-0.123c0.085-0.033,0.169-0.076,0.255-0.076
			c0.075,0,0.151,0.033,0.229,0.138c0.075,0.094,0.157,0.18,0.241,0.18c0.043,0,0.087-0.022,0.13-0.078l0.112,0.022l0.229,0.04
			c0.017,0,0.034-0.001,0.052-0.001c0.05,0,0.1,0.012,0.144,0.104l0.106,0.123c0.336,0,0.659,0.312,0.992,0.312
			c0.027,0,0.055-0.002,0.082-0.007c0.025-0.003,0.051-0.005,0.077-0.005c0.035,0,0.071,0.002,0.107,0.005
			c0.036,0.004,0.072,0.006,0.107,0.006c0.026,0,0.053-0.002,0.078-0.006c0.019-0.003,0.036-0.005,0.054-0.005
			c0.058,0,0.114,0.018,0.17,0.034c0.057,0.017,0.112,0.034,0.169,0.034c0.054,0,0.107-0.017,0.161-0.063
			c0.334-0.305,0.675-0.161,1.016-0.366l0.202,0.021c0.036,0.005,0.072,0.007,0.109,0.007c0.135,0,0.279-0.033,0.444-0.13
			c-0.063-0.143-0.083-0.263-0.113-0.263l-0.194,0.082c-0.034,0.014-0.065,0.021-0.096,0.021c-0.097,0-0.18-0.079-0.306-0.268
			c0.105-0.203,0.212-0.427,0.325-0.63c0.05,0,0.104-0.023,0.158-0.023c0.06,0,0.12,0.028,0.175,0.146l0.136,0.039l0.213-0.121
			c0.044,0.082,0.091,0.183,0.136,0.285c0.044-0.049,0.088-0.117,0.133-0.117c0.033,0,0.066,0.035,0.101,0.138
			c-0.021,0.527-0.181,0.324-0.278,0.565c0.093,0.186,0.182,0.232,0.277,0.232c0.021,0,0.042-0.002,0.064-0.006
			c0.058,0,0.117-0.019,0.175-0.019c0.049,0,0.096,0.013,0.141,0.06c0.099,0.125,0.196,0.166,0.294,0.166
			c0.047,0,0.093-0.01,0.139-0.022c0.129-0.038,0.26-0.106,0.391-0.106c0.082,0,0.164,0.027,0.246,0.106l0.082-0.041
			c0.09-0.087,0.18-0.115,0.27-0.115c0.122,0,0.244,0.051,0.366,0.074l0.145,0.062c0.165-0.06,0.329-0.076,0.493-0.076
			c0.233,0,0.467,0.035,0.702,0.035c0.056,0,0.11,0.006,0.166,0.006c0.097,0,0.195-0.017,0.295-0.108l0.106-0.021
			c0.084,0.096,0.167,0.126,0.25,0.126c0.129,0,0.257-0.072,0.385-0.085l0.175-0.041c0.17,0.068,0.339,0.113,0.507,0.113
			c0.188,0,0.374-0.056,0.562-0.195h0.09c0.259,0,0.521-0.021,0.779-0.021c0.092,0.021,0.175,0.104,0.267,0.145l0.258,0.041
			c0.087-0.062,0.174-0.071,0.262-0.071c0.021,0,0.043,0,0.064,0.001c0.021,0,0.043,0.001,0.064,0.001
			c0.044,0,0.087-0.003,0.13-0.013c0.099-0.041,0.212-0.041,0.312-0.185c0.054-0.078,0.104-0.107,0.153-0.107
			c0.041,0,0.081,0.019,0.126,0.047c0.09,0.038,0.19,0.079,0.288,0.079c0.063,0,0.128,0.014,0.191,0.014
			c0.073,0,0.144-0.018,0.208-0.093c0.078-0.095,0.15-0.135,0.223-0.135c0.066,0,0.133,0.035,0.203,0.094l0.061-0.021
			c0.106-0.021,0.211-0.062,0.316-0.08c0.355-0.082,0.72,0.021,1.076-0.203h0.173c0.019-0.004,0.038-0.005,0.057-0.005
			c0.028,0,0.057,0.003,0.085,0.006c0.027,0.003,0.057,0.005,0.084,0.005c0.042,0,0.084-0.006,0.123-0.027
			c0.041-0.021,0.082-0.03,0.123-0.03c0.082,0,0.165,0.034,0.249,0.068c0.083,0.034,0.167,0.067,0.249,0.067
			c0.071,0,0.143-0.025,0.213-0.098l0.112,0.186h0.145c0.243,0,0.482-0.314,0.719-0.314c0.065,0,0.132,0.024,0.197,0.086
			c0.104-0.084,0.207-0.17,0.311-0.17c0.048,0,0.097,0.019,0.145,0.064l0.081-0.071c0.184-0.225,0.364-0.219,0.547-0.239
			c0.387-0.039,0.771-0.272,1.157-0.272c0.104,0.009,0.208,0.015,0.313,0.015c0.14,0,0.281-0.01,0.429-0.033l0.047-0.062h0.893
			l0.138-0.003c0.104,0,0.21,0.073,0.33,0.094l0.031-0.091h1.124c0.009,0,0.015,0.158,0.017,0.281l0.184-0.156l0.212,0.093
			l0.053-0.218h0.554c0.089,0,0.181,0.146,0.209,0.146c0.001,0,0.002-0.001,0.003-0.001l0.09-0.146h11.396l0.053-0.01l0.253-0.007
			c0.051-0.018,0.101-0.024,0.15-0.024c0.213,0,0.421,0.138,0.632,0.231l0.198,0.011l0.08-0.015c0.134,0.112,0.27,0.142,0.407,0.142
			c0.141,0,0.282-0.031,0.421-0.035c0.158,0,0.317,0.025,0.479,0.188l0.146,0.071c0.045-0.004,0.09-0.007,0.136-0.007
			c0.209,0,0.417,0.061,0.626,0.229l0.146-0.047l0.174-0.051c0.199,0.098,0.405,0.105,0.601,0.313l0.119,0.026
			c0.107-0.054,0.215-0.081,0.32-0.081c0.182,0,0.359,0.081,0.541,0.253l0.119,0.018l0.255,0.026
			c0.056,0.006,0.112,0.028,0.167,0.028c0.046,0,0.09-0.017,0.132-0.072l0.054-0.019c0.101,0.058,0.2,0.072,0.301,0.072
			c0.052,0,0.104-0.003,0.155-0.008c0.052-0.004,0.104-0.008,0.155-0.008c0.114,0,0.229,0.02,0.342,0.104l0.128-0.01l0.173,0.01
			h0.146c0.047-0.025,0.095-0.043,0.143-0.043c0.068,0,0.138,0.037,0.206,0.148l0.12,0.045c0.154-0.063,0.307-0.101,0.46-0.101
			c0.124,0,0.248,0.025,0.373,0.081l0.233,0.01c0.081-0.02,0.167-0.051,0.254-0.051c0.065,0,0.133,0.019,0.199,0.072l0.174-0.037
			c0.166-0.1,0.353,0.045,0.521-0.217c0.117,0.203,0.245,0.255,0.377,0.255c0.061,0,0.121-0.011,0.182-0.022
			c0.099-0.021,0.197-0.073,0.295-0.073c0.063,0,0.125,0.021,0.187,0.083l0.101-0.02c0.088-0.122,0.177-0.146,0.267-0.146
			c0.029,0,0.059,0.002,0.087,0.005c0.029,0.002,0.059,0.005,0.089,0.005c0.037,0,0.074-0.004,0.111-0.017l0.22,0.146
			c0.007,0.005,0.014,0.007,0.021,0.007c0.017,0,0.032-0.012,0.049-0.023c0.017-0.011,0.033-0.022,0.05-0.022
			c0.023,0,0.047,0.022,0.068,0.102l0.145,0.018h0.247c0.023,0.023,0.047,0.033,0.068,0.033c0.073,0,0.14-0.11,0.204-0.222
			c0.062,0.137,0.128,0.188,0.196,0.188c0.03,0,0.061-0.01,0.091-0.026c0.068-0.027,0.137-0.036,0.206-0.036
			c0.085,0,0.169,0.013,0.254,0.018c0.04,0.004,0.08,0.006,0.119,0.006c0.163,0,0.326-0.036,0.481-0.159
			c0.128-0.094,0.251-0.147,0.376-0.147c0.115,0,0.231,0.048,0.351,0.157l0.08,0.054c0.04-0.07,0.08-0.162,0.127-0.27
			c0.09,0.07,0.182,0.127,0.272,0.127c0.104,0,0.208-0.073,0.309-0.279c0.114,0.078,0.23,0.136,0.349,0.136
			c0.059,0,0.118-0.015,0.178-0.048l0.099,0.013c0.113,0.104,0.225,0.138,0.335,0.138c0.158,0,0.316-0.071,0.473-0.118
			c0.052-0.02,0.104-0.065,0.155-0.065c0.045,0,0.09,0.033,0.133,0.146l0.229-0.07l0.247-0.021l0.227,0.034
			c0.055-0.053,0.106-0.069,0.158-0.069c0.063,0,0.123,0.023,0.189,0.035c0.063,0.009,0.125,0.017,0.187,0.017
			c0.134,0,0.267-0.035,0.394-0.168l0.093-0.054c0.072,0.044,0.143,0.06,0.212,0.06c0.076,0,0.151-0.019,0.227-0.036
			c0.075-0.019,0.151-0.036,0.227-0.036h0.016c0.008,0.002,0.016,0.002,0.024,0.002c0.054,0,0.108-0.037,0.151-0.116
			c0.043-0.095,0.092-0.135,0.14-0.135c0.025,0,0.051,0.011,0.074,0.033c0.091,0.072,0.18,0.098,0.268,0.098
			c0.129,0,0.257-0.056,0.384-0.098h0.08c0.033-0.089,0.066-0.188,0.106-0.306c0.039,0.117,0.066,0.217,0.102,0.325
			c0.009,0.004,0.018,0.006,0.025,0.006c0.098,0,0.097-0.284,0.146-0.493l0.176,0.101c0.014,0.102,0.014,0.17,0.02,0.227
			c0.12,0.107,0.234,0.156,0.349,0.156c0.197,0,0.387-0.147,0.573-0.383c0.029-0.04,0.059-0.055,0.087-0.055
			c0.055,0,0.107,0.055,0.159,0.09l0.223,0.036c0.044-0.034,0.093-0.038,0.143-0.038h0.049c0.065,0,0.132-0.007,0.195-0.078
			c0.039-0.048,0.082-0.06,0.125-0.06c0.021,0,0.041,0.003,0.062,0.005c0.021,0.003,0.042,0.005,0.063,0.005
			c0.05,0,0.101-0.014,0.149-0.077l0.121,0.021l0.191,0.008c0.13-0.128,0.261-0.225,0.396-0.225c0.073,0,0.147,0.028,0.225,0.094
			l0.199-0.019h0.716l0.057,0.048l0.018-0.045h1.188c0.041,0,0.05,0.248,0.021,0.683c0.088,0.007,0.159,0.011,0.219,0.011
			c0.236,0,0.264-0.064,0.381-0.26c-0.07-0.057-0.105-0.09-0.151-0.09c-0.051,0-0.113,0.039-0.241,0.129l-0.033-0.253
			c0-0.114,0.016-0.196,0.041-0.262l0.01,0.042h0.292c0.093,0,0.188,0.063,0.276,0.133l0.024-0.231c0,0,2.143,0.06,4.063,0.06
			c1.076,0,2.081-0.02,2.602-0.077c0.094-0.012,0.159-0.023,0.229-0.037l0.014,0.02c0,0,0.969,0.11,1.68,0.11
			c0.297,0,0.548-0.02,0.666-0.073c0.079-0.036,0.164-0.051,0.256-0.051c0.379,0,0.869,0.255,1.431,0.345
			c0.088,0.014,0.187,0.021,0.292,0.021c0.735,0,1.81-0.307,1.873-0.498c0.072-0.221,0.588-0.146,0.99-0.258
			S95.303,22.35,95.01,22.167z M92.613,17.247c0.014,0,0.027,0.042,0.041,0.042l0.002-0.001c0.021,0,0.039,0.169,0.063,0.328
			c-0.031,0.131-0.054,0.24-0.077,0.328c-0.037-0.088-0.051-0.308-0.057-0.59C92.595,17.271,92.604,17.247,92.613,17.247z
			 M92.068,17.699c0.002,0,0.004,0.001,0.006,0.003c0.01,0.016,0.019,0.022,0.027,0.022c0.031,0,0.061-0.075,0.091-0.151
			c0.034-0.091,0.067-0.129,0.102-0.129c0.015,0,0.03,0.007,0.045,0.021l0.075-0.064c0.014-0.033,0.026-0.05,0.041-0.05
			c0.031,0,0.065,0.087,0.104,0.267c-0.008,0.109-0.015,0.241-0.021,0.373l-0.131,0.185l-0.021,0.031
			c-0.051,0.154-0.104,0.178-0.158,0.178l-0.062,0.063l-0.065-0.1c-0.032-0.031-0.053-0.185-0.067-0.391
			C92.039,17.77,92.052,17.699,92.068,17.699z M91.743,18.412c0.006,0.021,0.012,0.029,0.018,0.029c0.021,0,0.041-0.118,0.061-0.171
			c0.034-0.095,0.066-0.16,0.101-0.16c0.02,0,0.041,0.025,0.063,0.083c0.01,0.219-0.004,0.307-0.021,0.315l-0.062-0.086
			c-0.017,0.169-0.042,0.265-0.069,0.265c-0.003,0-0.006-0.002-0.009-0.004c-0.007-0.006-0.013-0.011-0.019-0.011
			c-0.014,0-0.025,0.024-0.038,0.099l-0.016,0.021c-0.014,0-0.023-0.056-0.027-0.176L91.743,18.412z M16.745,23.543
			c-0.097,0-0.192,0.009-0.288,0.009c-0.048,0-0.096-0.001-0.145-0.009c-0.045,0-0.09-0.102-0.099-0.282
			c-0.007-0.144,0.054-0.429,0.099-0.429c0.035,0.013,0.07,0.019,0.105,0.019c0.07,0,0.139-0.019,0.205-0.019
			c0.083,0.021,0.152,0.266,0.167,0.568L16.745,23.543z M18.888,23.726c-0.055,0.025-0.107,0.039-0.16,0.039
			c-0.118,0-0.233-0.067-0.348-0.223c-0.069-0.08-0.091-0.305-0.045-0.59h0.085c0.17,0.021,0.339,0.117,0.511,0.143
			c0.019,0.07,0.029,0.158,0.032,0.267C18.963,23.543,18.941,23.705,18.888,23.726z M19.402,23.994c-0.06,0-0.103-0.181-0.152-0.328
			c0.017-0.19,0.049-0.231,0.083-0.231c0.01,0,0.02,0.003,0.029,0.007c0.076,0.041,0.114,0.204,0.114,0.468
			C19.449,23.97,19.424,23.994,19.402,23.994z M13.519,2.083l-0.104-0.041l-0.121,0.123h0.227L13.519,2.083z"/>
	</g>
</g>
</svg>
