<svg xmlns="http://www.w3.org/2000/svg" style="display: none;">
  
    <symbol id="icon-hamburger" viewBox="0 0 512 512">
      <path d="m0 380l17 0 46 67 47-67 17 0 0 130-15 0 0-107-49 69-48-69 0 107-15 0z m158 0l89 0 0 14-74 0 0 43 67 0 0 13-67 0 0 46 75 0 0 14-90 0z m118 0l15 0 73 106 0-106 15 0 0 130-16 0-72-106 0 106-15 0z m133 82l0-82 16 0 0 82c0 24 16 36 36 36 19 0 35-12 35-36l0-82 16 0 0 82c0 33-22 50-51 50-29 0-52-17-52-50z m26-103c0-5 3-8 8-8 5 0 9 3 9 8 0 5-4 9-9 9-5 0-8-4-8-9z m35 0c0-5 4-8 9-8 5 0 8 3 8 8 0 5-3 9-8 9-5 0-9-4-9-9z m-17-59c-88-5-176-5-263-6-41-1-83-2-121 7l-1 0c-16 4-32 9-50 4-7-1-14-4-17-7-4-5 3-10 11-13 25-8 55-10 84-11 78-4 157-4 235 0 55 3 109 6 164 7 0 0 17-2 17 2 0 4-12 7-14 9-3 3-5 3-8 4-3 1-13 2-15 3-3 0-22 1-22 1z m-394-294c88 5 176 5 263 6 41 0 83 2 121-6l1-1c16-3 32-7 50-3 7 1 14 4 17 7 4 4-3 8-11 11-25 8-55 10-84 11-78 3-157 3-235 0-55-3-109-6-164-7 0 0-17 2-17-2 0-4 12-6 14-8 3-2 5-2 8-4 3-1 13-2 15-2 3-1 22-2 22-2z m-23 151c17 1 34 1 51 2 96 6 192 7 288 6 40 0 79-7 118-12 7 0 13-5 21-9-5-3-6-5-8-5-65 2-129 7-194 6-94-1-187-5-281-7 0 0-6-13-22-4-16 8-5 13-1 16 5 3 25 5 25 5"/>
    </symbol>
  
    <symbol id="icon-herz" viewBox="0 0 512 512">
      <path d="m256 478c-30-19-258-155-256-299 2-150 194-191 256-54 62-137 254-96 256 54 2 144-226 280-256 299z"/>
    </symbol>
  
    <symbol id="icon-herz-outline" viewBox="0 0 512 512">
      <path d="m133 65c44 0 81 25 101 70l22 48 22-48c20-45 57-70 101-70 53 0 108 39 109 114 1 78-81 174-232 271-151-97-233-193-232-271 1-75 56-114 109-114m246-24c-48 0-97 26-123 84-26-58-75-84-123-84-67 0-132 51-133 138-2 144 226 280 256 299 30-19 258-155 256-299-1-87-66-138-133-138z"/>
    </symbol>
  
    <symbol id="icon-lupe" viewBox="0 0 512 512">
      <path d="m375 211c-11 207-309 207-321 0-4-91 77-157 161-161 91-5 155 77 160 161 1 20 32 20 31 0-6-108-83-186-191-192-108-6-186 92-191 192-6 108 91 186 191 191 108 6 185-92 191-191 1-20-30-20-31 0z m-196-78c34-21 76-14 100 19 11 16 38 1 26-16-33-46-92-60-141-30-17 11-2 37 15 27z m152 215c47 46 95 92 143 137 14 14 36-8 21-21-47-46-95-92-143-137-14-14-36 8-21 21z m50 50c28 28 57 56 85 84 14 14 36-7 22-21-29-28-57-57-86-85-14-14-35 8-21 22z"/>
    </symbol>
  
    <symbol id="icon-pfeil" viewBox="0 0 512 512">
      <path d="m492 427c8 39-169 65-239 65-71 0-246-24-239-64 3-18 223-394 223-394 0 0 4-7 11-8 7 1 11 8 11 8 0 0 230 374 233 393z"/>
    </symbol>
  
    <symbol id="icon-social-google" viewBox="0 0 512 512">
      <path d="m226 308c-2-1-7 0-17 0-8 2-18 4-27 7-2 0-5 2-9 3-4 2-8 5-13 8-4 4-7 8-10 13-3 6-4 12-4 20 0 15 6 28 20 38 13 9 31 15 54 15 20 0 36-5 47-14 10-8 15-19 15-33 0-11-3-20-10-29-8-7-20-17-36-28-3 0-6 0-10 0z m3-185c-7-5-14-8-23-8-12 0-22 5-29 14-7 10-10 20-10 32 0 16 5 32 14 49 4 8 10 15 17 20 7 6 15 8 24 8 11 0 21-4 29-12 3-5 6-11 7-17 0-6 1-10 1-14 0-18-5-35-14-52-4-8-9-15-16-20z m27-123c-141 0-256 115-256 256 0 141 115 256 256 256 141 0 256-115 256-256 0-141-115-256-256-256z m19 123c3 4 6 8 9 13 3 5 6 10 8 16 2 7 3 14 3 23 0 15-3 27-10 37-3 4-7 8-10 12-4 4-9 8-13 12-3 2-5 5-7 9-3 3-4 7-4 12 0 5 1 8 4 11 2 3 4 6 6 8l15 12c9 7 17 15 24 24 7 10 10 22 10 36 0 21-9 40-28 56-19 17-46 25-83 26-30 0-53-7-68-19-15-12-22-26-22-43 0-8 2-17 7-27 5-9 14-18 26-25 14-8 29-14 44-16 16-3 28-4 38-4-3-4-6-9-8-13-3-5-4-10-4-17 0-4 0-7 1-9 1-3 2-5 3-8-5 1-10 1-14 1-23 0-40-7-53-22-12-13-19-28-19-46 0-21 9-40 27-58 13-10 25-16 39-19 13-3 25-4 37-4l86 0-27 15-26 0c2 2 5 4 9 7z m161 47l-45 0 0 45-22 0 0-45-46 0 0-22 46 0 0-46 22 0 0 46 45 0z"/>
    </symbol>
  
    <symbol id="icon-social-facebook" viewBox="0 0 512 512">
      <path d="m256 0c-141 0-256 115-256 256 0 141 115 256 256 256 141 0 256-115 256-256 0-141-115-256-256-256z m89 127l-35 0c-27 0-32 12-32 31l0 42 65 0-9 65-56 0 0 167-67 0 0-167-56 0 0-65 56 0 0-48c0-56 34-86 84-86 24 0 44 2 50 2z"/>
    </symbol>
  
    <symbol id="icon-social-twitter" viewBox="0 0 512 512">
      <path d="m256 0c-141 0-256 115-256 256 0 141 115 256 256 256 141 0 256-115 256-256 0-141-115-256-256-256z m141 198c0 3 1 5 1 8 0 88-67 188-188 188-38 0-72-11-102-30 6 1 11 1 16 1 31 0 60-10 82-28-29 0-53-20-61-46 4 1 8 1 12 1 6 0 12 0 17-2-30-6-53-33-53-65l0 0c9 4 19 7 30 8-17-12-29-32-29-55 0-12 3-24 9-33 32 40 81 66 136 69-1-5-2-10-2-15 0-37 30-66 66-66 19 0 36 8 48 20 16-3 30-8 42-16-5 16-15 29-29 37 14-2 26-5 38-10-9 13-20 24-33 34z"/>
    </symbol>
  
    <symbol id="icon-plus" viewBox="0 0 512 512">
      <path d="m256 0c-141 0-256 115-256 256 0 141 115 256 256 256 141 0 256-115 256-256 0-141-115-256-256-256z m129 284l-97 0 0 100-64 0 0-100-97 0 0-57 97 0 0-99 64 0 0 99 97 0z"/>
    </symbol>
  
    <symbol id="icon-limette" viewBox="0 0 512 512">
      <path d="m304 502c-2 20-92 5-126-5-35-11-116-50-106-68 5-8 172-156 172-156 0 0 3-3 7-2 3 1 4 6 4 6 0 0 51 216 49 225z m203-216c19 9-23 89-44 117-21 29-83 93-98 78-6-6-97-209-97-209 0 0-1-4 1-7 2-2 6-2 6-2 0 0 224 19 232 23z m-145-258c14-14 78 50 100 79 21 28 63 107 44 116-8 3-231 26-231 26 0 0-5 0-7-3-2-2 0-6 0-6 0 0 88-205 94-212z m-293 57c-9-17 72-58 106-69 34-11 123-26 126-6 1 9-46 225-46 225 0 0-2 5-5 6-3 1-6-2-6-2 0 0-170-145-175-154z m-35 294c-20 3-34-86-34-121 0-36 12-124 33-120 9 2 203 113 203 113 0 0 3 3 4 6 0 3-4 5-4 5 0 0-193 115-202 117z"/>
    </symbol>
  
    <symbol id="icon-logo" viewBox="0 0 512 512">
      <path d="m245 262c0 2-10 0-13-1-4-1-12-5-11-7 0-1 18-17 18-17 0 0 0 0 0 0 1 0 1 1 1 1 0 0 5 23 5 24z m21-23c2 1-2 9-4 12-3 3-9 10-11 9 0-1-10-23-10-23 0 0 0 0 0 0 1-1 1-1 1-1 0 0 23 2 24 3z m-15-27c2-2 8 5 10 8 3 3 7 11 5 12-1 1-24 3-24 3 0 0-1 0-1 0 0-1 0-1 0-1 0 0 9-22 10-22z m-31 6c-1-2 8-7 12-8 3-1 12-3 13 0 0 1-5 23-5 23 0 0 0 1-1 1 0 0 0 0 0 0 0 0-18-16-19-16z m44 42l3 0 0 38 23 0 0 2-26 0z m34 0l3 0 0 40-3 0z m13 0l3 0 15 23 16-23 3 0 0 40-3 0 0-37-16 24-16-24 0 37-2 0z m45 20c0-13 9-21 20-21 10 0 19 8 19 21 0 12-9 20-19 20-11 0-20-8-20-20z m36 0c0-11-7-19-16-19-10 0-17 8-17 19 0 11 7 18 17 18 9 0 16-7 16-18z m11-20l3 0 25 37 0-37 2 0 0 40-3 0-24-37 0 37-3 0z m41 0l26 0 0 2-24 0 0 17 21 0 0 1-21 0 0 18 24 0 0 2-26 0z m35 0l3 0 25 37 0-37 2 0 0 40-3 0-24-37 0 37-3 0z m-475 0l2 0 0 38 23 0 0 2-25 0z m33 0l26 0 0 2-23 0 0 17 21 0 0 2-21 0 0 17 24 0 0 2-27 0z m36 0l15 0c9 0 12 5 12 10 0 5-3 8-7 9 5 1 9 5 9 10 0 7-5 11-12 11l-17 0z m15 19c7 0 10-4 10-9 0-4-3-8-10-8l-13 0 0 17z m2 19c6 0 10-3 10-9 0-5-5-8-10-8l-15 0 0 17z m21-38l26 0 0 2-24 0 0 17 22 0 0 2-22 0 0 17 24 0 0 2-26 0z m36 0l2 0 25 37 0-37 2 0 0 40-2 0-25-37 0 37-2 0z m101 38c1 1 2 2 4 3l1-2c-4-3-9-6-14-10l0 0 0-1c4-5 7-12 7-19l-2 0c-1 6-3 12-7 18l0 0-1 0c-12-9-21-17-28-26-5-5-7-10-7-15 0-6 4-13 13-13 6 0 11 2 14 5l2-1c-4-4-9-6-16-6-9 0-16 6-16 15 0 5 2 10 6 14l0 1-1 0c-9 5-15 13-15 22 0 14 12 20 23 20 10 0 19-5 26-12l0 0 1 0c3 3 6 5 10 7z m-13-8c-6 7-15 11-24 11-10 0-20-6-20-18 0-8 5-16 14-20l0-1 1 1c9 11 20 19 29 26l0 0z m-93-56l1 0 5 14 0 0 5-14 2 0-6 15-2 0z m14 8c0-5 4-8 8-8 4 0 8 3 8 8 0 5-4 8-8 8-4 0-8-3-8-8z m14 0c0-4-3-7-6-7-3 0-6 3-6 7 0 4 3 7 6 7 3 0 6-3 6-7z m5-8l1 0 9 14 0-14 2 0 0 15-2 0-9-13 0 13-1 0z"/>
    </symbol>
  
    <symbol id="icon-otto" viewBox="0 0 512 512">
      <path d="m452 73l-452 0 0 366 452 0c33 0 60-26 60-59l0-307z m-41 166c-21 0-38 6-50 19 2-4 3-10 3-16l-73 0c-16 0-25 7-32 25l4-25-74 0c-14 0-23 6-26 19-10-15-26-22-46-22-40 0-65 22-70 71l0 6c-4 43 19 64 54 64 39 0 64-23 69-71l0-6c1-11 1-21-2-29l33 0-9 81c-2 16 7 24 21 24 9 0 12-1 16-1l12-104 38 0-9 81c-2 16 6 24 21 24 9 0 12-1 15-1l12-104 19 0c7 0 12-1 16-4-6 10-10 23-11 40l-1 6c-4 43 19 64 54 64 39 0 64-23 69-71l1-6c4-43-19-64-54-64z m-280 61l0 5c-3 32-13 43-27 43-11 0-20-8-18-30l0-4c3-33 14-43 27-43 11 0 20 8 18 29z m294 0l0 5c-3 32-13 43-26 43-12 0-20-8-19-30l1-4c2-33 13-43 26-43 12 0 20 8 18 29z m-378-149l5 0 1 5c3-4 8-6 13-6 10 0 17 7 17 20 0 15-7 23-17 23-5 0-10-3-13-7l0 21-6 0z m29 20c0-10-4-16-11-16-5 0-9 2-12 6l0 20c3 4 7 6 12 6 7 0 11-6 11-16z m15 0c0-13 8-21 19-21 12 0 20 8 20 21 0 13-8 22-20 22-11 0-19-9-19-22z m33 0c0-10-6-16-14-16-7 0-13 6-13 16 0 10 6 16 13 16 8 0 14-6 14-16z m11-20l6 0 11 33 1 0 9-33 6 0 10 33 0 0 11-33 7 0-14 41-7 0-10-32 0 0-10 32-6 0z m85 42c-12 0-20-9-20-22 0-13 9-21 20-21 11 0 17 8 17 18 0 1 0 3-1 4l-29 0c0 10 5 15 13 15 5 0 9-1 12-4l3 5c-4 3-9 5-15 5z m-13-26l23 0c0-7-2-12-10-12-7 0-12 4-13 12z m40-16l6 0 1 7c3-6 7-8 12-8 2 0 4 0 5 0l-1 6c-1 0-3 0-5 0-5 0-8 2-11 8l0 28-7 0z m47 42c-12 0-19-9-19-22 0-13 8-21 19-21 12 0 17 8 17 18 0 1 0 3 0 4l-30 0c0 10 5 15 14 15 4 0 8-1 12-4l2 5c-4 3-9 5-15 5z m-13-26l24 0c0-7-3-12-11-12-6 0-11 4-13 12z m38 3c0-13 7-20 17-20 5 0 10 2 13 6l0-24 6 0 0 60-5 0-1-6c-3 4-8 7-13 7-10 0-17-8-17-23z m30 11l0-20c-3-4-7-6-12-6-7 0-11 6-11 16 0 10 4 16 11 16 5 0 9-2 12-6z m45 5l-1 6-5 0 0-60 6 0 0 24c4-4 8-6 13-6 10 0 17 7 17 20 0 15-6 23-17 23-5 0-10-3-13-7z m23-15c0-10-4-16-11-16-5 0-8 2-12 6l0 20c4 4 7 6 12 6 7 0 11-6 11-16z m12 36l1-5c2 0 4 1 5 1 3 0 5-1 7-5l2-7-15-40 7 0 12 32 0 0 11-32 7 0-18 47c-3 8-7 10-12 10-3 0-5 0-7-1z"/>
    </symbol>
  
    <symbol id="icon-line01" viewBox="0 0 512 512">
      <path d="m510 256c-2 0-5 0-7 0-4 0-9 0-13 0-2 0-4 0-6 0-7 0-13 0-20 0-3 0-6-1-9-1-2 0-4 0-6 0-6 0-12 0-19 0-2 0-5 0-8 0-4 0-8 0-12 0-5-1-10-1-15-1-3 0-6 0-9 0-1 0-3 0-5 0-4 0-8 0-12 0-2 0-4 0-6 1-4 0-7 0-10 0-6 0-13 0-19 0-6 0-12 0-18 0-5 0-10 0-15 0-4 0-8 0-11 0-7 0-13 1-19 1-2 0-4 0-6 0-1 0-2 0-4 0-4 0-8 0-12 0-1 0-3 0-5 0-4 0-8 0-12 0-2 0-3 0-4 0-3 0-5 0-8 0-3 0-7 0-10 0-7 0-13 0-19 0-7 1-13 1-20 1-3 0-6 0-10 0-4 0-7 0-11 0-1 0-1 0-2 0-5 0-9 0-14 0-4 1-8 1-13 1-2 0-4 0-7 0-1 0-2 0-4 0-1 0-3 0-5 0-3 0-6 0-10 0-4 0-8 0-13 0-3 0-7 0-10 0-3 0-6 0-8 0-4 0-8 0-12 0-7 0-14 0-21 0-1 0-1 0-2 0-1-1-3-1-4-1-3 0-5 0-7 0-4 0-7 0-10 0-2 0-3 0-5 0l0 0c-1 1-1 1-2 1 0-1 0-1 0-1-1 0 0 0 0 0 1 0 2 0 3 0 3 0 6 0 9 0 3 0 5 0 8 0 3 0 6 0 9 0 2 0 4 0 7 0 3 0 7 0 11 0 4 0 8 1 12 1 3 0 7 0 10 0 6 0 12 0 18 0 5 0 10 0 16 0 2 0 5 0 7 0 3 0 5-1 8-1 2 0 4 0 6 0 0 0 1 0 2 0 4 0 7 0 11 0 1 0 2 0 3 0 5 0 11 0 17-1 3 0 6 0 9 0 5 0 11 0 17 0 9 0 17 0 25 0 3 0 6 0 9 0 2 0 3 0 5 0 3 0 6 0 9-1 1 0 1 0 1 0 5 1 9 0 14 0 3 0 6 0 9 0 2 0 3 0 4 0 3 0 5 0 8 0 6 0 12 0 18 0 3 0 7 0 11 0 6 0 12 0 18 0 1 0 1 0 2 0 1 0 2 0 3 0 5 0 10 0 15 0 8-1 16-1 23-1 5 0 9 0 14 0 2 0 4 0 6 0 2 0 5 0 8 0 5 0 10 0 16 0 3 0 6 0 10 0 7 0 14 0 21 1 0 0 1 0 1 0 3 0 6 0 9 0 5 0 10 0 14 0 1 0 3 0 4 0 6 0 12 0 18 0 2 0 3 0 5 1 3 0 7 0 11 0 3-1 7-1 10-1 2 0 3 1 4 1 1 0 1 0 1 0 0 0 0 0 0 0z"/>
    </symbol>
  
    <symbol id="icon-3pfeile" viewBox="0 0 512 512">
      <path d="m28 330c-11 2-19-50-19-71 0-21 7-72 19-70 5 1 116 65 116 65 0 0 2 2 2 4 0 2-2 3-2 3 0 0-110 67-116 69z m185 0c-11 2-19-50-19-71 0-21 7-72 19-70 5 1 115 65 115 65 0 0 3 2 3 4 0 2-2 3-2 3 0 0-111 67-116 69z m182 0c-11 2-19-50-19-71 0-21 7-72 19-70 5 1 115 65 115 65 0 0 3 2 3 4 0 2-3 3-3 3 0 0-110 67-115 69z"/>
    </symbol>
  
    <symbol id="icon-minus" viewBox="0 0 512 512">
      <path d="m256 0c-141 0-256 115-256 256 0 141 115 256 256 256 141 0 256-115 256-256 0-141-115-256-256-256z m129 284l-258 0 0-57 258 0z"/>
    </symbol>
    
    <symbol id="icon-pfeilchen" viewBox="0 0 512 512">
        <path d="M1.694 11.995C0.689 12.175 0.005 7.739 0 5.975C-0.003 4.21 0.614-0.174 1.637 0.005 C2.092 0.085 11.786 5.64 11.786 5.64s0.195 0.119 0.197 0.285c-0.001 0.168-0.191 0.278-0.191 0.278S2.16 11.911 1.694 11.995z"/>
    </symbol>
</svg>
