<?xml version="1.0" encoding="utf-8"?>
<!-- Generator: Adobe Illustrator 15.1.0, SVG Export Plug-In . SVG Version: 6.00 Build 0)  -->
<!DOCTYPE svg PUBLIC "-//W3C//DTD SVG 1.1//EN" "http://www.w3.org/Graphics/SVG/1.1/DTD/svg11.dtd">
<svg version="1.1" id="Ebene_1" xmlns="http://www.w3.org/2000/svg" xmlns:xlink="http://www.w3.org/1999/xlink" x="0px" y="0px"
	 width="260.737px" height="5px" viewBox="0 0 260.737 5" enable-background="new 0 0 260.737 5" xml:space="preserve">
<path fill-rule="evenodd" clip-rule="evenodd" fill="#605350" d="M1.211,1.911c13.195-0.056,26.423,0.054,39.584-0.158
	c15.099-0.244,30.077,0.114,45.104,0.271c8.358,0.086,16.73,0.061,25.091,0.115c10.219,0.066,20.438,0.139,30.649,0.256
	c9.091,0.104,18.18,0.256,27.261,0.42c5.741,0.104,11.459,0.314,17.205,0.4c7.604,0.113,15.227,0.217,22.839,0.205
	c6.534-0.01,12.969,0.207,19.431,0.387c7.423,0.207,14.856,0.183,22.271,0.016c2.743-0.061,5.589-0.154,7.969-0.617
	c0.776-0.15,1.45-0.376,1.029-0.645c-0.262-0.165-0.959-0.312-1.585-0.393c-1.719-0.225-3.249,0.016-4.771,0.208l-0.041,0.013
	c-3.668,0.481-7.638,0.396-11.474,0.365c-8.343-0.068-16.689-0.066-25.025-0.326c-5.882-0.182-11.882-0.053-17.829-0.094
	c-3.518-0.024-7.034-0.104-10.549-0.166c-1.669-0.029-3.332-0.08-5.001-0.108c-17.611-0.298-35.218-0.639-52.837-0.872
	c-9.834-0.129-19.698-0.083-29.55-0.105c-6.499-0.016-12.981-0.02-19.492-0.154c-8.691-0.182-17.443-0.19-26.172-0.207
	C44.173,0.7,33.021,0.729,21.872,0.768c0,0-17.382,0.114-17.764,0.005C3.724,0.663,1.43,1.208,1.43,1.208L1.211,1.911z"/>
</svg>
