<?xml version="1.0" encoding="utf-8"?>
<!-- Generator: Adobe Illustrator 15.1.0, SVG Export Plug-In . SVG Version: 6.00 Build 0)  -->
<!DOCTYPE svg PUBLIC "-//W3C//DTD SVG 1.1//EN" "http://www.w3.org/Graphics/SVG/1.1/DTD/svg11.dtd">
<svg version="1.1" id="Ebene_1" xmlns="http://www.w3.org/2000/svg" xmlns:xlink="http://www.w3.org/1999/xlink" x="0px" y="0px"
	 width="3.186px" height="265.477px" viewBox="0 0 3.186 265.477" enable-background="new 0 0 3.186 265.477" xml:space="preserve">
<path fill-rule="evenodd" clip-rule="evenodd" fill="#605350" d="M1.307,256.023c0.185-8.376,0.239-16.777,0.345-25.17
	c0.07-5.537,0.131-11.06,0.291-16.604c0.214-7.404,0.299-14.858,0.391-22.295c0.115-9.497,0.194-18.995,0.266-28.493
	c0.053-6.963,0.061-13.928,0.103-20.891c0.021-3.634,0.091-7.268,0.099-10.898c0.007-2.84-0.045-5.676-0.076-8.509
	c-0.059-5.039-0.134-10.073-0.178-15.116c-0.081-9.148-0.201-18.292-0.197-27.456C2.352,70.941,2.29,61.318,2.18,51.702
	c-0.019-1.575-0.013-3.161-0.018-4.742c-0.023-7.9-0.039-15.804-0.074-23.702C2.056,15.99,2.002,8.728,1.961,1.466
	c0,0,0.063-1.364-0.107-1.133C1.682,0.564,1.579,0.797,1.44,1.123C1.302,1.448,1.176,0.654,1.139,0.98
	C1.102,1.308,1.29,2.617,1.347,3.505c0.059,0.889-0.057,8.282-0.057,8.282c0.044,5.999,0.051,12.01,0.085,18.013
	c0.069,12.471,0.03,24.974,0.228,37.411c0.03,1.885,0.007,3.794,0.01,5.694c0.008,7.749,0.011,15.497,0.031,23.242
	c0.005,1.731,0.089,3.443,0.106,5.175c0.039,3.942,0.054,7.894,0.086,11.839c0.043,5.678,0.114,11.351,0.132,17.033
	c0.018,5.214-0.001,10.438-0.038,15.657c-0.077,11.243-0.278,22.509-0.238,33.721c0.046,12.867-0.356,25.624-0.608,38.425
	c-0.139,7.12-0.195,14.251-0.312,21.372c-0.142,8.705-0.701,26.113-0.467,26.107c0.234-0.006,0.714-2.448,0.736-4.539
	S1.307,256.023,1.307,256.023z"/>
</svg>
