<?xml version="1.0" encoding="utf-8"?>
<!-- Generator: Adobe Illustrator 16.0.3, SVG Export Plug-In . SVG Version: 6.00 Build 0)  -->
<!DOCTYPE svg PUBLIC "-//W3C//DTD SVG 1.1//EN" "http://www.w3.org/Graphics/SVG/1.1/DTD/svg11.dtd">
<svg version="1.1" id="Layer_1" xmlns="http://www.w3.org/2000/svg" xmlns:xlink="http://www.w3.org/1999/xlink" x="0px" y="0px"
	 width="30.002px" height="47.996px" viewBox="0 0 30.002 47.996" enable-background="new 0 0 30.002 47.996" xml:space="preserve">
<path fill="#6A5F5C" d="M22.641,30.816c-6.251,9.055-7.154,16.706-7.154,16.706c-0.139,0.632-0.694,0.632-0.833,0
	c0,0-1.181-7.651-7.292-16.706C2.292,23.656,0,20.847,0,15.022C0,6.669,6.598,0,14.932,0c8.265,0,15.07,6.669,15.07,15.022
	C30.002,20.848,25.558,26.534,22.641,30.816z M20.835,15.303c0-3.229-2.5-5.755-5.765-5.755c-3.057,0-5.626,2.526-5.626,5.755
	c0,3.229,2.569,5.967,5.626,5.967C18.335,21.27,20.835,18.532,20.835,15.303z"/>
</svg>
